<svg xmlns="http://www.w3.org/2000/svg" viewBox="0 0 32 32" width="32" height="32">
  <defs>
    <style>
      .skull { fill: #dc2626; }
      .background { fill: #000000; }
      .eye { fill: #000000; }
      .teeth { fill: #000000; }
    </style>
  </defs>
  
  <!-- Background -->
  <rect class="background" width="32" height="32" rx="3"/>
  
  <!-- Skull outline -->
  <path class="skull" d="M16 4c-6 0-9 3-9 8 0 3 1 5 2 7l-1 3c0 2 1 3 3 3h1l1 2h6l1-2h1c2 0 3-1 3-3l-1-3c1-2 2-4 2-7 0-5-3-8-9-8z"/>
  
  <!-- Eyes -->
  <circle class="eye" cx="12" cy="14" r="2"/>
  <circle class="eye" cx="20" cy="14" r="2"/>
  
  <!-- Nose -->
  <path class="eye" d="M16 18l-1 2 1 1 1-1z"/>
  
  <!-- Teeth -->
  <rect class="teeth" x="13" y="22" width="1" height="2"/>
  <rect class="teeth" x="15" y="22" width="1" height="3"/>
  <rect class="teeth" x="17" y="22" width="1" height="2"/>
  <rect class="teeth" x="19" y="22" width="1" height="3"/>
</svg>